<svg width="2604" height="366" viewBox="0 0 2604 366" fill="none" xmlns="http://www.w3.org/2000/svg">
<path d="M182 364C146.333 364 114.833 356.333 87.5 341C60.1667 325.333 38.6667 304 23 277C7.66667 249.667 1.90735e-06 218.5 1.90735e-06 183.5C1.90735e-06 147.833 7.66667 116.5 23 89.5C38.6667 62.1667 60.1667 40.8333 87.5 25.5C114.833 9.83333 146.333 1.99999 182 1.99999C200.667 1.99999 218.833 5.16666 236.5 11.5C254.167 17.5 270.333 25.8333 285 36.5C299.667 47.1667 311.5 59.3333 320.5 73L287 96C280.333 85.3333 271.333 75.8333 260 67.5C248.667 58.8333 236.167 52.1666 222.5 47.5C209.167 42.8333 195.667 40.5 182 40.5C155 40.5 131 46.6666 110 59C89 71 72.5 87.6667 60.5 109C48.5 130.333 42.5 155.167 42.5 183.5C42.5 210.833 48.3333 235.333 60 257C72 278.333 88.5 295.167 109.5 307.5C130.833 319.833 155 326 182 326C204.667 326 224.667 321.333 242 312C259.667 302.333 273.5 289.167 283.5 272.5C293.5 255.5 298.5 236 298.5 214L339 211C339 241.667 332.333 268.5 319 291.5C305.667 314.167 287.167 332 263.5 345C239.833 357.667 212.667 364 182 364ZM212.5 216V179.5H339V212.5L319 216H212.5ZM545.883 358L543.883 317V226C543.883 206.333 541.716 190.167 537.383 177.5C533.049 164.5 526.216 154.667 516.883 148C507.549 141.333 495.383 138 480.383 138C466.716 138 454.883 140.833 444.883 146.5C435.216 151.833 427.216 160.5 420.883 172.5L384.883 158.5C391.216 146.833 398.883 136.833 407.883 128.5C416.883 119.833 427.383 113.333 439.383 109C451.383 104.333 465.049 102 480.383 102C503.716 102 522.883 106.667 537.883 116C553.216 125 564.716 138.5 572.383 156.5C580.049 174.167 583.716 196.167 583.383 222.5L582.883 358H545.883ZM470.883 364C441.549 364 418.549 357.333 401.883 344C385.549 330.333 377.383 311.5 377.383 287.5C377.383 262.167 385.716 242.833 402.383 229.5C419.383 215.833 443.049 209 473.383 209H544.883V242.5H482.383C459.049 242.5 442.383 246.333 432.383 254C422.716 261.667 417.883 272.667 417.883 287C417.883 300 422.716 310.333 432.383 318C442.049 325.333 455.549 329 472.883 329C487.216 329 499.716 326 510.383 320C521.049 313.667 529.216 304.833 534.883 293.5C540.883 281.833 543.883 268.167 543.883 252.5H560.883C560.883 286.5 553.216 313.667 537.883 334C522.549 354 500.216 364 470.883 364ZM668.766 222.5C668.766 195.5 673.932 173.667 684.266 157C694.599 140 707.766 127.5 723.766 119.5C740.099 111.167 757.266 107 775.266 107V144.5C760.599 144.5 746.432 147 732.766 152C719.432 156.667 708.432 164.5 699.766 175.5C691.099 186.5 686.766 201.5 686.766 220.5L668.766 222.5ZM646.766 358V108H686.766V358H646.766ZM892.211 358L994.211 108H1036.21L931.711 358H892.211ZM889.711 358L785.211 108H826.711L928.711 358H889.711ZM1077.98 358V108H1117.98V358H1077.98ZM1098.48 50C1091.81 50 1085.98 47.5 1080.98 42.5C1075.98 37.5 1073.48 31.6667 1073.48 25C1073.48 18 1075.98 12.1666 1080.98 7.49998C1085.98 2.49999 1091.81 -1.0252e-05 1098.48 -1.0252e-05C1105.48 -1.0252e-05 1111.31 2.49999 1115.98 7.49998C1120.98 12.1666 1123.48 18 1123.48 25C1123.48 31.6667 1120.98 37.5 1115.98 42.5C1111.31 47.5 1105.48 50 1098.48 50ZM1191.69 358V108H1229.19L1231.69 154V358H1191.69ZM1367.19 358V230H1407.19V358H1367.19ZM1367.19 230C1367.19 205.333 1364.35 186.5 1358.69 173.5C1353.02 160.5 1345.19 151.667 1335.19 147C1325.19 142 1313.85 139.5 1301.19 139.5C1279.19 139.5 1262.02 147.333 1249.69 163C1237.69 178.333 1231.69 200.167 1231.69 228.5H1212.19C1212.19 202.167 1216.02 179.5 1223.69 160.5C1231.35 141.5 1242.52 127 1257.19 117C1271.85 107 1289.52 102 1310.19 102C1329.85 102 1346.85 106 1361.19 114C1375.85 121.667 1387.19 134 1395.19 151C1403.52 168 1407.52 190.333 1407.19 218V230H1367.19Z" fill="#3B3B3B"/>
<path d="M1473.5 358V7.99998H1542V295.5H1696V358H1473.5ZM1883.55 358L1881.55 307.5V231.5C1881.55 216.5 1879.88 203.667 1876.55 193C1873.55 182.333 1868.55 174.167 1861.55 168.5C1854.88 162.5 1845.72 159.5 1834.05 159.5C1823.38 159.5 1813.72 161.833 1805.05 166.5C1796.38 171.167 1789.05 178.333 1783.05 188L1725.05 168C1729.72 157.333 1736.55 147 1745.55 137C1754.55 126.667 1766.22 118.333 1780.55 112C1795.22 105.333 1813.05 102 1834.05 102C1859.38 102 1880.38 106.833 1897.05 116.5C1914.05 126.167 1926.55 139.833 1934.55 157.5C1942.88 174.833 1946.88 195.5 1946.55 219.5L1945.05 358H1883.55ZM1813.55 364C1783.55 364 1760.22 357.333 1743.55 344C1727.22 330.667 1719.05 311.833 1719.05 287.5C1719.05 260.833 1727.88 240.833 1745.55 227.5C1763.55 213.833 1788.72 207 1821.05 207H1884.55V256H1844.05C1822.38 256 1807.38 258.667 1799.05 264C1790.72 269 1786.55 276.167 1786.55 285.5C1786.55 292.833 1789.88 298.667 1796.55 303C1803.22 307 1812.55 309 1824.55 309C1835.55 309 1845.22 306.5 1853.55 301.5C1862.22 296.167 1869.05 289.5 1874.05 281.5C1879.05 273.167 1881.55 264.667 1881.55 256H1897.55C1897.55 290 1891.05 316.5 1878.05 335.5C1865.38 354.5 1843.88 364 1813.55 364ZM1999.15 358V7.99998H2065.15V311.5L2061.65 358H1999.15ZM2140.65 364C2119.65 364 2101.82 358.667 2087.15 348C2072.82 337.333 2061.82 322.167 2054.15 302.5C2046.49 282.833 2042.65 259.667 2042.65 233C2042.65 206 2046.49 182.833 2054.15 163.5C2061.82 143.833 2072.82 128.667 2087.15 118C2101.82 107.333 2119.65 102 2140.65 102C2163.65 102 2183.49 107.333 2200.15 118C2217.15 128.667 2230.32 143.833 2239.65 163.5C2248.99 182.833 2253.65 206 2253.65 233C2253.65 259.667 2248.99 282.833 2239.65 302.5C2230.32 322.167 2217.15 337.333 2200.15 348C2183.49 358.667 2163.65 364 2140.65 364ZM2123.65 303.5C2135.65 303.5 2146.15 300.5 2155.15 294.5C2164.49 288.5 2171.82 280.167 2177.15 269.5C2182.49 258.833 2185.15 246.667 2185.15 233C2185.15 219.333 2182.49 207.167 2177.15 196.5C2172.15 185.833 2164.99 177.667 2155.65 172C2146.65 166 2136.15 163 2124.15 163C2112.82 163 2102.65 166 2093.65 172C2084.65 178 2077.65 186.333 2072.65 197C2067.65 207.333 2065.15 219.333 2065.15 233C2065.15 246.667 2067.65 258.833 2072.65 269.5C2077.65 280.167 2084.49 288.5 2093.15 294.5C2102.15 300.5 2112.32 303.5 2123.65 303.5ZM2390.5 364C2374.5 364 2359.5 361.667 2345.5 357C2331.5 352 2319.17 345 2308.5 336C2297.84 326.667 2289.5 315.333 2283.5 302L2340 276C2345 284 2351.84 291 2360.5 297C2369.17 302.667 2379.17 305.5 2390.5 305.5C2401.5 305.5 2410 304 2416 301C2422 297.667 2425 293 2425 287C2425 281 2422.5 276.667 2417.5 274C2412.84 271 2406.34 268.5 2398 266.5L2375 260.5C2351 254.167 2332 244.167 2318 230.5C2304.34 216.5 2297.5 200.5 2297.5 182.5C2297.5 156.833 2305.67 137 2322 123C2338.67 109 2362.17 102 2392.5 102C2408.17 102 2422.67 104.333 2436 109C2449.67 113.667 2461.34 120.167 2471 128.5C2480.67 136.833 2487.34 146.5 2491 157.5L2436.5 182.5C2434.17 175.833 2428.5 170.5 2419.5 166.5C2410.5 162.167 2401.5 160 2392.5 160C2383.5 160 2376.5 162 2371.5 166C2366.84 169.667 2364.5 174.833 2364.5 181.5C2364.5 185.833 2366.84 189.5 2371.5 192.5C2376.17 195.167 2382.84 197.5 2391.5 199.5L2424 207.5C2440.34 211.5 2453.34 218 2463 227C2473 235.667 2480.17 245.5 2484.5 256.5C2489.17 267.167 2491.5 277.667 2491.5 288C2491.5 303 2487 316.333 2478 328C2469.34 339.333 2457.34 348.167 2442 354.5C2427 360.833 2409.84 364 2390.5 364ZM2563.41 365.5C2552.41 365.5 2542.91 361.5 2534.91 353.5C2527.25 345.5 2523.41 336 2523.41 325C2523.41 314.333 2527.25 305 2534.91 297C2542.91 289 2552.41 285 2563.41 285C2574.41 285 2583.75 289 2591.41 297C2599.41 305 2603.41 314.333 2603.41 325C2603.41 336 2599.41 345.5 2591.41 353.5C2583.75 361.5 2574.41 365.5 2563.41 365.5Z" fill="#00AE43"/>
</svg>
