<svg width="1189" height="1189" viewBox="0 0 1189 1189" fill="none" xmlns="http://www.w3.org/2000/svg">
<rect width="1189" height="1189" rx="594.5" fill="white"/>
<path d="M413 776C377.333 776 345.833 768.333 318.5 753C291.167 737.333 269.667 716 254 689C238.667 661.667 231 630.5 231 595.5C231 559.833 238.667 528.5 254 501.5C269.667 474.167 291.167 452.833 318.5 437.5C345.833 421.833 377.333 414 413 414C431.667 414 449.833 417.167 467.5 423.5C485.167 429.5 501.333 437.833 516 448.5C530.667 459.167 542.5 471.333 551.5 485L518 508C511.333 497.333 502.333 487.833 491 479.5C479.667 470.833 467.167 464.167 453.5 459.5C440.167 454.833 426.667 452.5 413 452.5C386 452.5 362 458.667 341 471C320 483 303.5 499.667 291.5 521C279.5 542.333 273.5 567.167 273.5 595.5C273.5 622.833 279.333 647.333 291 669C303 690.333 319.5 707.167 340.5 719.5C361.833 731.833 386 738 413 738C435.667 738 455.667 733.333 473 724C490.667 714.333 504.5 701.167 514.5 684.5C524.5 667.5 529.5 648 529.5 626L570 623C570 653.667 563.333 680.5 550 703.5C536.667 726.167 518.167 744 494.5 757C470.833 769.667 443.667 776 413 776ZM443.5 628V591.5H570V624.5L550 628H443.5Z" fill="#3B3B3B"/>
<path d="M625.883 770V420H694.383V707.5H848.383V770H625.883ZM918.438 777.5C907.438 777.5 897.938 773.5 889.938 765.5C882.271 757.5 878.438 748 878.438 737C878.438 726.333 882.271 717 889.938 709C897.938 701 907.438 697 918.438 697C929.438 697 938.771 701 946.438 709C954.438 717 958.438 726.333 958.438 737C958.438 748 954.438 757.5 946.438 765.5C938.771 773.5 929.438 777.5 918.438 777.5Z" fill="#00AE43"/>
</svg>
